<?xml version="1.0" encoding="UTF-8"?>
<svg width="282px" height="277px" viewBox="0 0 282 277" version="1.1" xmlns="http://www.w3.org/2000/svg" xmlns:xlink="http://www.w3.org/1999/xlink">
    <!-- Generator: Sketch 57.1 (83088) - https://sketch.com -->
    <title>Logo</title>
    <desc>Created with Sketch.</desc>
    <g id="Dark" stroke="none" stroke-width="1" fill="none" fill-rule="evenodd">
        <g id="Login-1-Dark" transform="translate(-1139.000000, -381.000000)">
            <g id="Logo" transform="translate(1139.000000, 381.000000)">
                <path d="M282,171.686893 C277.137127,176.5 267.413835,181.310679 252.825217,181.310679 C228.515761,181.310679 223.655342,138 189.622593,138 C155.587391,138 140.998773,162.063107 140.998773,162.063107 C140.998773,162.063107 126.412609,138 92.3798603,138 C58.3446584,138 53.4817857,181.313107 29.1723292,181.313107 C14.5861646,181.313107 4.86041919,176.5 0,171.689321 C0,171.686893 9.72329189,215 72.930823,215 C92.3774068,215 126.412609,205.376214 140.998773,176.5 C155.584938,205.373786 189.62014,215 209.066724,215 C272.274255,215 282,171.686893 282,171.686893" id="Fill-1" fill="#535353"></path>
                <path d="M160.303676,136 C168.239575,132.285778 178.129726,129.582061 190.19457,129.582061 C194.915489,129.582061 199.141033,130.301737 203,131.50202 C189.406925,108.060768 178.451719,89.2012929 170.136859,75 C159.189084,84.0033535 148.164525,109.505051 160.303676,136" id="Fill-3" fill="#FFFFFF"></path>
                <path d="M251.68268,215 C241.249908,219.44345 227.926067,222.550671 211,222.592428 C218.883842,236.315785 227.405528,251.154303 236.606603,267.191496 C242.049045,276.594219 253.884584,279.760392 263.239621,274.38846 C272.597102,268.918277 275.747217,257.019952 270.400085,247.617229 L251.68268,215 Z" id="Fill-5" fill="#FFFFFF"></path>
                <path d="M13.5986868,247.587322 C8.25298397,256.999852 11.4047009,269.006484 20.7572377,274.384019 C30.1097745,279.764013 42.0398782,276.594538 47.3831379,267.182007 L73,222.533959 C56.1810702,222.472487 42.8436882,219.487426 32.298874,215 L13.5986868,247.587322 Z" id="Fill-7" fill="#FFFFFF"></path>
                <path d="M92.9302125,129.545213 C104.979379,129.545213 114.848079,132.266253 122.752884,136 L184.38181,29.402616 C189.766528,19.9932774 186.59427,7.99071728 177.171014,2.61500582 C167.75022,-2.76316367 155.735508,0.40523691 150.350791,9.81703351 L141.601855,24.889673 L133.047341,9.81703351 C127.566644,0.40523691 115.645451,-2.76316367 106.224656,2.61500582 C96.803862,8.08658044 93.6316039,19.9932774 99.0163212,29.402616 L119.012129,64.0657541 L80,131.526386 C83.8908767,130.287538 88.1558287,129.545213 92.9302125,129.545213" id="Fill-9" fill="#FFFFFF"></path>
            </g>
        </g>
    </g>
</svg>